<?xml version="1.0" encoding="UTF-8"?><svg id="Layer_2" xmlns="http://www.w3.org/2000/svg" viewBox="0 0 230.97 28.81"><defs><style>.cls-1{fill:#231f20;}.cls-1,.cls-2{stroke-width:0px;}.cls-2{fill:#ff6f4a;}</style></defs><g id="Artwork"><path class="cls-1" d="m85.14,2.83c3.17,0,6.3,1.13,8.8,3.17l.41.33v-3.5l-.11-.07c-2.63-1.84-5.7-2.77-9.1-2.77-7.94,0-14.4,6.37-14.4,14.21s6.46,14.21,14.4,14.21c3.41,0,6.47-.93,9.1-2.77l.11-.07v-3.5l-.41.33c-2.5,2.05-5.63,3.18-8.8,3.18-6.25,0-11.34-5.1-11.34-11.38s5.09-11.38,11.34-11.38Z"/><path class="cls-1" d="m223.34,11.49c-2.74-1.37-5.1-2.56-5.1-4.64,0-2.2,1.71-3.92,3.88-3.92,1.84,0,3.2.8,4.54,2.68l.14.2,2.24-1.54-.12-.2c-1.56-2.56-3.98-3.97-6.8-3.97-3.81,0-6.9,3.03-6.9,6.75,0,3.92,3.5,5.71,6.88,7.44,2.99,1.53,5.82,2.98,5.82,5.76,0,3.21-2.33,5.64-5.41,5.64-2.6,0-4.72-1.54-5.8-4.21l-.12-.29-2.35,1.62.08.19c1.44,3.52,4.42,5.53,8.18,5.53,4.67,0,8.47-3.8,8.47-8.47s-4.05-6.76-7.63-8.55Z"/><path class="cls-1" d="m202.07,15.14c3.23-.74,6.36-3.17,6.36-7.1,0-4.6-3.42-7.57-8.72-7.57h-6.42l-.34.34v26.92h2.77v-12.16h3.09l9.08,12.06.07.1h3.51l-9.41-12.59Zm3.28-7.1c0,3.54-3.11,4.79-6.03,4.79h-3.6V3.21h3.99c3.59,0,5.64,1.76,5.64,4.83Z"/><path class="cls-1" d="m177.08.74l-.06-.16h-2.79l-10.98,27.25h3.02l3.14-7.83h12.43l3.18,7.83h2.98L177.08.74Zm3.67,16.52h-10.21l5.1-12.96,5.1,12.96Z"/><polygon class="cls-1" points="125.69 25.18 125.69 .66 122.92 .66 122.92 27.91 123.33 27.91 123.3 27.92 138.21 27.91 138.21 25.18 125.69 25.18"/><polygon class="cls-1" points="146.76 25.18 146.76 .66 143.99 .66 143.99 27.91 144.39 27.91 144.37 27.92 159.28 27.91 159.28 25.18 146.76 25.18"/><polygon class="cls-1" points="117.01 25.27 116.87 25.12 103.44 25.12 103.44 14.23 112.75 14.23 112.75 11.51 103.44 11.51 103.44 3.29 115.82 3.29 115.82 .58 100.68 .58 100.68 27.83 116.77 27.83 116.88 27.82 117.03 27.68 117.03 25.39 117.01 25.27"/><path class="cls-1" d="m18.59,7.85c-.4-2.47-1.74-4.63-3.77-6.09C12.78.3,10.31-.28,7.84.13,5.38.53,3.22,1.87,1.76,3.9.3,5.93-.28,8.4.13,10.87c.4,2.47,1.74,4.63,3.77,6.09,1.6,1.15,3.48,1.76,5.45,1.76.46,0,.92-.03,1.38-.1l-6.13,8.53,2.31,1.66,9.99-13.9.06-.08c1.46-2.03,2.04-4.51,1.64-6.97Zm-3.95,5.31c-1.02,1.41-2.52,2.34-4.23,2.63-1.72.28-3.44-.13-4.85-1.14-1.41-1.01-2.34-2.52-2.62-4.24-.28-1.72.12-3.44,1.14-4.85,1.01-1.41,2.52-2.34,4.24-2.63,1.71-.28,3.44.13,4.85,1.14,1.41,1.01,2.35,2.52,2.63,4.24.28,1.72-.12,3.44-1.14,4.85Z"/><path class="cls-1" d="m39.36,5.03c-1.26-2.29-3.57-5.03-7.43-5.03s-6.17,2.73-7.43,5.03c-1.44,2.62-2.3,6.11-2.3,9.34,0,3.53.93,7.07,2.56,9.73,1.28,2.08,3.56,4.56,7.17,4.56s5.9-2.48,7.17-4.56c1.62-2.65,2.56-6.2,2.56-9.73,0-3.22-.86-6.71-2.3-9.34Zm-.6,9.49c-.04,1.89-.45,4.76-1.51,7.13-1.26,2.81-3.05,4.23-5.32,4.23s-4.06-1.42-5.32-4.23c-1.06-2.37-1.48-5.24-1.51-7.13-.05-2.59.78-7.64,3.22-10.14,1.04-1.07,2.23-1.59,3.61-1.59s2.57.52,3.62,1.59c2.46,2.52,3.27,7.45,3.22,10.15Z"/><polygon class="cls-2" points="57.62 12.26 57.62 4.98 54.9 4.98 54.9 12.26 47.62 12.26 47.62 14.98 54.9 14.98 54.9 22.27 57.62 22.27 57.62 14.98 64.9 14.98 64.9 12.26 57.62 12.26"/></g></svg>